<svg xmlns="http://www.w3.org/2000/svg" width="100" height="100" viewBox="0 0 200 200" version="1.1"><path d="M 121.767 21.031 C 114.863 23.835, 109.678 27.354, 106.158 31.624 C 102.876 35.606, 100.027 42.641, 99.960 46.928 L 99.920 49.500 98.338 46.500 C 95.890 41.856, 92.923 39.017, 87.783 36.401 C 85.189 35.080, 82.764 34, 82.394 34 C 81.120 34, 82.932 44.198, 84.762 47.333 C 85.771 49.059, 88.527 51.829, 90.887 53.486 C 94.378 55.938, 96.140 56.485, 100.339 56.421 C 112.028 56.243, 121.407 48.898, 125.064 37.058 C 127.352 29.650, 128.733 18.973, 127.392 19.055 C 126.902 19.085, 124.370 19.974, 121.767 21.031" stroke="none" fill="#51ad2a" fill-rule="evenodd"/><path d="M 65.045 57.030 C 57.764 58.559, 50.429 62.749, 44.065 69.015 C 33.868 79.055, 30 89.233, 30 106.022 C 30 118.959, 32.187 128.353, 38.449 142.317 C 50.591 169.394, 61.148 180.914, 73.874 180.978 C 76.826 180.993, 80.891 179.795, 86.374 177.296 C 92.600 174.458, 95.786 173.592, 100 173.592 C 104.214 173.592, 107.400 174.458, 113.626 177.296 C 119.109 179.795, 123.174 180.993, 126.126 180.978 C 138.852 180.914, 149.409 169.394, 161.551 142.317 C 167.723 128.554, 170 118.915, 170 106.550 C 170 89.484, 166.069 78.993, 155.935 69.015 C 142.669 55.954, 126.990 52.933, 109.275 60.026 C 105.191 61.662, 101.017 63, 100 63 C 98.983 63, 94.707 61.621, 90.497 59.935 C 82.055 56.555, 72.501 55.464, 65.045 57.030 M 120.455 86.429 C 118.690 87.737, 118.650 88.030, 120.045 89.449 C 121.403 90.829, 121.828 90.844, 123.545 89.571 C 125.310 88.263, 125.350 87.970, 123.955 86.551 C 122.597 85.171, 122.172 85.156, 120.455 86.429 M 145.116 89.580 C 143.952 91.059, 143 93.297, 143 94.553 C 143 95.809, 142.727 97.548, 142.393 98.418 C 141.323 101.208, 140 100.111, 140 96.434 C 140 91.225, 138.421 88.704, 135.977 90.012 C 134.910 90.583, 133.364 92.276, 132.542 93.775 L 131.046 96.500 131.273 94 C 131.423 92.343, 130.994 91.500, 130 91.500 C 128.926 91.500, 128.352 92.975, 127.978 96.689 C 127.691 99.542, 127.158 102.175, 126.795 102.539 C 125.321 104.012, 124 101.630, 124 97.500 C 124 95.090, 123.601 92.871, 123.113 92.570 C 121.441 91.537, 119.908 94.817, 120.150 98.912 C 120.283 101.165, 119.868 103.532, 119.229 104.171 C 117.793 105.607, 117.192 104.214, 116.785 98.508 C 116.407 93.216, 113.813 92.618, 111.030 97.182 C 109.198 100.188, 109.007 100.281, 109.004 98.177 C 108.998 94.386, 105.569 95.807, 105.187 99.758 C 104.804 103.712, 103.252 104.034, 102.816 100.250 C 102.346 96.162, 98.959 96.581, 96.752 101 L 95.003 104.500 95.002 101.677 C 94.999 97.837, 91.635 98.350, 91.184 102.259 C 90.807 105.519, 89.938 105.694, 87.500 103 C 85.331 100.603, 81.735 100.408, 79.573 102.570 C 78.010 104.132, 77.313 106.236, 76.780 111 C 76.585 112.740, 75.892 113.500, 74.500 113.500 C 72.681 113.500, 72.455 112.667, 72 104.281 C 71.624 97.347, 71.070 94.634, 69.766 93.333 C 67.354 90.927, 62.979 92.565, 60.935 96.641 C 59.432 99.639, 59.335 99.677, 58.435 97.630 C 57.321 95.092, 53.527 94.318, 51.292 96.173 C 50.413 96.902, 49.150 98.792, 48.486 100.372 L 47.278 103.244 46.648 100.732 C 46.301 99.351, 45.275 97.936, 44.368 97.588 C 42.245 96.773, 38.226 99.410, 36.792 102.557 C 35.311 105.807, 36.807 107.112, 38.731 104.250 C 42.055 99.306, 43.965 103.143, 43.989 114.816 C 44.002 120.928, 45.348 124.188, 47.515 123.356 C 48.666 122.914, 49 120.889, 49 114.361 C 49 105.325, 50.824 99, 53.430 99 C 55.336 99, 55.846 101.319, 56.216 111.670 C 56.525 120.328, 56.985 121.603, 59.457 120.655 C 60.671 120.189, 61 118.344, 61 111.999 C 61 103.455, 62.861 97, 65.324 97 C 66.411 97, 66.855 99.012, 67.194 105.472 C 67.805 117.124, 71.277 120.835, 77.132 116.095 C 78.863 114.693, 79.959 114.443, 81.280 115.150 C 84.080 116.648, 87.048 115.130, 88.605 111.404 C 90.301 107.344, 91.550 107.071, 92.427 110.566 C 93.259 113.879, 96.389 113.464, 96.780 109.990 C 96.934 108.620, 97.305 106.386, 97.606 105.025 L 98.151 102.549 99.944 104.926 C 101.189 106.576, 102.377 107.135, 103.833 106.754 C 105.331 106.362, 106.108 106.764, 106.551 108.160 C 107.662 111.661, 110.447 109.870, 111.065 105.255 C 111.823 99.590, 112.603 99.115, 113.361 103.857 C 114.067 108.269, 116.073 109.589, 119.322 107.782 C 120.520 107.116, 122.625 106.452, 124 106.308 C 132.818 105.379, 132.416 105.612, 133.324 100.913 C 134.444 95.115, 136 93.525, 136 98.178 C 136 102.982, 138.124 104.746, 141.780 102.978 C 143.276 102.255, 145.314 101.771, 146.310 101.904 C 147.305 102.037, 148.875 101.551, 149.798 100.823 C 151.291 99.646, 151.283 99.777, 149.724 102 C 146.074 107.207, 144.727 110.776, 145.400 113.458 C 145.948 115.640, 146.560 116.069, 148.762 115.813 C 152.119 115.423, 153.965 112.001, 153.985 106.132 C 153.997 102.717, 154.655 101.018, 157 98.347 C 158.650 96.468, 160 94.496, 160 93.965 C 160 92.178, 157.494 92.981, 155.991 95.250 C 154.552 97.421, 154.482 97.324, 154 92.500 C 153.525 87.753, 153.341 87.485, 150.366 87.195 C 147.944 86.960, 146.750 87.503, 145.116 89.580 M 147.430 92.421 C 146.684 95.397, 147.164 98.039, 148.500 98.303 C 149.050 98.411, 149.638 96.588, 149.807 94.250 C 150.140 89.659, 148.450 88.358, 147.430 92.421 M 81 106.918 C 81 109.918, 82.081 112, 83.638 112 C 85.916 112, 86.297 109.370, 84.349 107.094 C 82.117 104.487, 81 104.429, 81 106.918 M 149.162 107.543 C 147.752 110.638, 147.662 113, 148.955 113 C 149.949 113, 151.583 106.250, 150.782 105.449 C 150.531 105.197, 149.802 106.140, 149.162 107.543 M 128.975 120.565 C 128.439 121.976, 128 124.188, 128 125.482 C 128 126.775, 127.438 128.030, 126.750 128.271 C 125.837 128.590, 125.978 129.247, 127.274 130.709 C 129.267 132.958, 128.725 135.542, 125.948 137.028 C 123.115 138.544, 122.528 138.179, 124.425 136.082 C 126.451 133.844, 126.179 129.650, 123.981 129.231 C 121.317 128.724, 118.851 131.419, 118.671 135.032 C 118.549 137.494, 117.977 138.576, 116.667 138.827 C 115.112 139.125, 114.998 138.871, 115.917 137.155 C 118.803 131.763, 115.112 128.898, 111.314 133.582 L 108.948 136.500 111.037 131.714 C 113.763 125.468, 113.388 121.500, 110.072 121.500 C 106.901 121.500, 105.721 125.397, 106.398 133.632 C 106.676 137.005, 106.662 140.005, 106.368 140.299 C 105.555 141.112, 102 137.207, 102 135.500 C 102 132.548, 99.214 134.043, 98.599 137.326 C 98.255 139.156, 97.360 141.493, 96.608 142.521 C 95.354 144.236, 95.183 144.044, 94.533 140.195 C 93.935 136.656, 93.456 136, 91.469 136 C 86.970 136, 84.295 143.153, 87.569 146.427 C 88.729 147.586, 89.626 147.736, 91.004 146.998 C 92.029 146.449, 93.805 146, 94.949 146 C 96.188 146, 97.766 144.788, 98.852 143.004 C 99.854 141.356, 100.968 140.302, 101.328 140.662 C 101.688 141.022, 101.498 141.900, 100.905 142.614 C 98.967 144.950, 100.883 146.112, 104.007 144.496 C 105.599 143.673, 107.823 143, 108.950 143 C 110.310 143, 111 142.349, 111 141.065 C 111 138.231, 113.149 133.257, 113.714 134.784 C 113.975 135.490, 113.641 136.727, 112.972 137.534 C 112.015 138.687, 112.021 139.320, 113 140.500 C 114.416 142.207, 117.577 142.494, 118.500 141 C 118.840 140.450, 120.836 140, 122.937 140 C 125.061 140, 127.292 139.354, 127.965 138.542 C 128.768 137.575, 130.163 137.283, 132.114 137.673 C 135.315 138.313, 139 135.914, 139 133.190 C 139 131.913, 138.728 131.936, 137.171 133.345 C 134.725 135.558, 133.300 135.430, 131.932 132.873 C 130.747 130.658, 131.921 129.050, 134.750 129.015 C 135.438 129.007, 136 128.339, 136 127.531 C 136 126.629, 135.415 126.287, 134.481 126.646 C 133.206 127.135, 133.130 126.788, 134.007 124.482 C 134.581 122.972, 134.784 120.895, 134.458 119.868 C 133.580 117.101, 130.125 117.540, 128.975 120.565 M 131.232 123 C 131.232 124.925, 131.438 125.713, 131.689 124.750 C 131.941 123.787, 131.941 122.213, 131.689 121.250 C 131.438 120.287, 131.232 121.075, 131.232 123 M 109.102 127.050 L 109.204 131.500 110.259 128.207 C 111.029 125.803, 111.002 124.602, 110.157 123.757 C 109.281 122.881, 109.025 123.681, 109.102 127.050 M 72.500 130.602 C 68.253 132.154, 64.182 135.516, 65.253 136.586 C 65.606 136.939, 67.447 136.269, 69.345 135.096 C 71.242 133.923, 74.528 132.860, 76.647 132.732 C 79.937 132.534, 80.545 132.820, 80.812 134.692 C 81.040 136.296, 80.293 137.314, 78.029 138.485 C 74.793 140.158, 74.778 142, 78 142 C 79.035 142, 80.205 142.523, 80.600 143.162 C 81.490 144.601, 77.478 148, 74.889 148 C 73.247 148, 73 147.216, 73 142 C 73 137.333, 72.667 136, 71.500 136 C 70.303 136, 70.003 137.465, 70.015 143.250 C 70.034 151.914, 70.772 153.640, 73.559 151.532 C 74.627 150.724, 76.227 150.049, 77.115 150.032 C 78.003 150.014, 79.916 149.067, 81.365 147.927 C 84.236 145.669, 84.939 141.298, 82.577 140.391 C 81.424 139.949, 81.519 139.481, 83.077 137.923 C 85.628 135.372, 85.510 132.470, 82.777 130.557 C 80.085 128.671, 77.759 128.681, 72.500 130.602 M 121.459 133.067 C 121.096 133.653, 121.040 134.373, 121.333 134.667 C 122.050 135.383, 124 134.121, 124 132.941 C 124 131.663, 122.274 131.748, 121.459 133.067 M 89.667 139.667 C 88.620 140.714, 88.888 145, 90 145 C 90.550 145, 91 143.650, 91 142 C 91 138.893, 90.796 138.537, 89.667 139.667" stroke="none" fill="#f1534b" fill-rule="evenodd"/><path d="M -0 100.005 L -0 200.010 100.250 199.755 L 200.500 199.500 200.755 99.750 L 201.010 0 100.505 0 L 0 0 -0 100.005 M 0.481 100.500 C 0.481 155.500, 0.602 178.147, 0.750 150.826 C 0.898 123.506, 0.898 78.506, 0.750 50.826 C 0.602 23.147, 0.481 45.500, 0.481 100.500 M 121.767 21.031 C 114.863 23.835, 109.678 27.354, 106.158 31.624 C 102.876 35.606, 100.027 42.641, 99.960 46.928 L 99.920 49.500 98.338 46.500 C 95.890 41.856, 92.923 39.017, 87.783 36.401 C 85.189 35.080, 82.764 34, 82.394 34 C 81.120 34, 82.932 44.198, 84.762 47.333 C 85.771 49.059, 88.527 51.829, 90.887 53.486 C 94.378 55.938, 96.140 56.485, 100.339 56.421 C 112.028 56.243, 121.407 48.898, 125.064 37.058 C 127.352 29.650, 128.733 18.973, 127.392 19.055 C 126.902 19.085, 124.370 19.974, 121.767 21.031 M 65.045 57.030 C 57.764 58.559, 50.429 62.749, 44.065 69.015 C 33.868 79.055, 30 89.233, 30 106.022 C 30 118.959, 32.187 128.353, 38.449 142.317 C 50.591 169.394, 61.148 180.914, 73.874 180.978 C 76.826 180.993, 80.891 179.795, 86.374 177.296 C 92.600 174.458, 95.786 173.592, 100 173.592 C 104.214 173.592, 107.400 174.458, 113.626 177.296 C 119.109 179.795, 123.174 180.993, 126.126 180.978 C 138.852 180.914, 149.409 169.394, 161.551 142.317 C 167.723 128.554, 170 118.915, 170 106.550 C 170 89.484, 166.069 78.993, 155.935 69.015 C 142.669 55.954, 126.990 52.933, 109.275 60.026 C 105.191 61.662, 101.017 63, 100 63 C 98.983 63, 94.707 61.621, 90.497 59.935 C 82.055 56.555, 72.501 55.464, 65.045 57.030 M 120.455 86.429 C 118.690 87.737, 118.650 88.030, 120.045 89.449 C 121.403 90.829, 121.828 90.844, 123.545 89.571 C 125.310 88.263, 125.350 87.970, 123.955 86.551 C 122.597 85.171, 122.172 85.156, 120.455 86.429 M 145.116 89.580 C 143.952 91.059, 143 93.297, 143 94.553 C 143 95.809, 142.727 97.548, 142.393 98.418 C 141.323 101.208, 140 100.111, 140 96.434 C 140 91.225, 138.421 88.704, 135.977 90.012 C 134.910 90.583, 133.364 92.276, 132.542 93.775 L 131.046 96.500 131.273 94 C 131.423 92.343, 130.994 91.500, 130 91.500 C 128.926 91.500, 128.352 92.975, 127.978 96.689 C 127.691 99.542, 127.158 102.175, 126.795 102.539 C 125.321 104.012, 124 101.630, 124 97.500 C 124 95.090, 123.601 92.871, 123.113 92.570 C 121.441 91.537, 119.908 94.817, 120.150 98.912 C 120.283 101.165, 119.868 103.532, 119.229 104.171 C 117.793 105.607, 117.192 104.214, 116.785 98.508 C 116.407 93.216, 113.813 92.618, 111.030 97.182 C 109.198 100.188, 109.007 100.281, 109.004 98.177 C 108.998 94.386, 105.569 95.807, 105.187 99.758 C 104.804 103.712, 103.252 104.034, 102.816 100.250 C 102.346 96.162, 98.959 96.581, 96.752 101 L 95.003 104.500 95.002 101.677 C 94.999 97.837, 91.635 98.350, 91.184 102.259 C 90.807 105.519, 89.938 105.694, 87.500 103 C 85.331 100.603, 81.735 100.408, 79.573 102.570 C 78.010 104.132, 77.313 106.236, 76.780 111 C 76.585 112.740, 75.892 113.500, 74.500 113.500 C 72.681 113.500, 72.455 112.667, 72 104.281 C 71.624 97.347, 71.070 94.634, 69.766 93.333 C 67.354 90.927, 62.979 92.565, 60.935 96.641 C 59.432 99.639, 59.335 99.677, 58.435 97.630 C 57.321 95.092, 53.527 94.318, 51.292 96.173 C 50.413 96.902, 49.150 98.792, 48.486 100.372 L 47.278 103.244 46.648 100.732 C 46.301 99.351, 45.275 97.936, 44.368 97.588 C 42.245 96.773, 38.226 99.410, 36.792 102.557 C 35.311 105.807, 36.807 107.112, 38.731 104.250 C 42.055 99.306, 43.965 103.143, 43.989 114.816 C 44.002 120.928, 45.348 124.188, 47.515 123.356 C 48.666 122.914, 49 120.889, 49 114.361 C 49 105.325, 50.824 99, 53.430 99 C 55.336 99, 55.846 101.319, 56.216 111.670 C 56.525 120.328, 56.985 121.603, 59.457 120.655 C 60.671 120.189, 61 118.344, 61 111.999 C 61 103.455, 62.861 97, 65.324 97 C 66.411 97, 66.855 99.012, 67.194 105.472 C 67.805 117.124, 71.277 120.835, 77.132 116.095 C 78.863 114.693, 79.959 114.443, 81.280 115.150 C 84.080 116.648, 87.048 115.130, 88.605 111.404 C 90.301 107.344, 91.550 107.071, 92.427 110.566 C 93.259 113.879, 96.389 113.464, 96.780 109.990 C 96.934 108.620, 97.305 106.386, 97.606 105.025 L 98.151 102.549 99.944 104.926 C 101.189 106.576, 102.377 107.135, 103.833 106.754 C 105.331 106.362, 106.108 106.764, 106.551 108.160 C 107.662 111.661, 110.447 109.870, 111.065 105.255 C 111.823 99.590, 112.603 99.115, 113.361 103.857 C 114.067 108.269, 116.073 109.589, 119.322 107.782 C 120.520 107.116, 122.625 106.452, 124 106.308 C 132.818 105.379, 132.416 105.612, 133.324 100.913 C 134.444 95.115, 136 93.525, 136 98.178 C 136 102.982, 138.124 104.746, 141.780 102.978 C 143.276 102.255, 145.314 101.771, 146.310 101.904 C 147.305 102.037, 148.875 101.551, 149.798 100.823 C 151.291 99.646, 151.283 99.777, 149.724 102 C 146.074 107.207, 144.727 110.776, 145.400 113.458 C 145.948 115.640, 146.560 116.069, 148.762 115.813 C 152.119 115.423, 153.965 112.001, 153.985 106.132 C 153.997 102.717, 154.655 101.018, 157 98.347 C 158.650 96.468, 160 94.496, 160 93.965 C 160 92.178, 157.494 92.981, 155.991 95.250 C 154.552 97.421, 154.482 97.324, 154 92.500 C 153.525 87.753, 153.341 87.485, 150.366 87.195 C 147.944 86.960, 146.750 87.503, 145.116 89.580 M 147.430 92.421 C 146.684 95.397, 147.164 98.039, 148.500 98.303 C 149.050 98.411, 149.638 96.588, 149.807 94.250 C 150.140 89.659, 148.450 88.358, 147.430 92.421 M 81 106.918 C 81 109.918, 82.081 112, 83.638 112 C 85.916 112, 86.297 109.370, 84.349 107.094 C 82.117 104.487, 81 104.429, 81 106.918 M 149.162 107.543 C 147.752 110.638, 147.662 113, 148.955 113 C 149.949 113, 151.583 106.250, 150.782 105.449 C 150.531 105.197, 149.802 106.140, 149.162 107.543 M 128.975 120.565 C 128.439 121.976, 128 124.188, 128 125.482 C 128 126.775, 127.438 128.030, 126.750 128.271 C 125.837 128.590, 125.978 129.247, 127.274 130.709 C 129.267 132.958, 128.725 135.542, 125.948 137.028 C 123.115 138.544, 122.528 138.179, 124.425 136.082 C 126.451 133.844, 126.179 129.650, 123.981 129.231 C 121.317 128.724, 118.851 131.419, 118.671 135.032 C 118.549 137.494, 117.977 138.576, 116.667 138.827 C 115.112 139.125, 114.998 138.871, 115.917 137.155 C 118.803 131.763, 115.112 128.898, 111.314 133.582 L 108.948 136.500 111.037 131.714 C 113.763 125.468, 113.388 121.500, 110.072 121.500 C 106.901 121.500, 105.721 125.397, 106.398 133.632 C 106.676 137.005, 106.662 140.005, 106.368 140.299 C 105.555 141.112, 102 137.207, 102 135.500 C 102 132.548, 99.214 134.043, 98.599 137.326 C 98.255 139.156, 97.360 141.493, 96.608 142.521 C 95.354 144.236, 95.183 144.044, 94.533 140.195 C 93.935 136.656, 93.456 136, 91.469 136 C 86.970 136, 84.295 143.153, 87.569 146.427 C 88.729 147.586, 89.626 147.736, 91.004 146.998 C 92.029 146.449, 93.805 146, 94.949 146 C 96.188 146, 97.766 144.788, 98.852 143.004 C 99.854 141.356, 100.968 140.302, 101.328 140.662 C 101.688 141.022, 101.498 141.900, 100.905 142.614 C 98.967 144.950, 100.883 146.112, 104.007 144.496 C 105.599 143.673, 107.823 143, 108.950 143 C 110.310 143, 111 142.349, 111 141.065 C 111 138.231, 113.149 133.257, 113.714 134.784 C 113.975 135.490, 113.641 136.727, 112.972 137.534 C 112.015 138.687, 112.021 139.320, 113 140.500 C 114.416 142.207, 117.577 142.494, 118.500 141 C 118.840 140.450, 120.836 140, 122.937 140 C 125.061 140, 127.292 139.354, 127.965 138.542 C 128.768 137.575, 130.163 137.283, 132.114 137.673 C 135.315 138.313, 139 135.914, 139 133.190 C 139 131.913, 138.728 131.936, 137.171 133.345 C 134.725 135.558, 133.300 135.430, 131.932 132.873 C 130.747 130.658, 131.921 129.050, 134.750 129.015 C 135.438 129.007, 136 128.339, 136 127.531 C 136 126.629, 135.415 126.287, 134.481 126.646 C 133.206 127.135, 133.130 126.788, 134.007 124.482 C 134.581 122.972, 134.784 120.895, 134.458 119.868 C 133.580 117.101, 130.125 117.540, 128.975 120.565 M 131.232 123 C 131.232 124.925, 131.438 125.713, 131.689 124.750 C 131.941 123.787, 131.941 122.213, 131.689 121.250 C 131.438 120.287, 131.232 121.075, 131.232 123 M 109.102 127.050 L 109.204 131.500 110.259 128.207 C 111.029 125.803, 111.002 124.602, 110.157 123.757 C 109.281 122.881, 109.025 123.681, 109.102 127.050 M 72.500 130.602 C 68.253 132.154, 64.182 135.516, 65.253 136.586 C 65.606 136.939, 67.447 136.269, 69.345 135.096 C 71.242 133.923, 74.528 132.860, 76.647 132.732 C 79.937 132.534, 80.545 132.820, 80.812 134.692 C 81.040 136.296, 80.293 137.314, 78.029 138.485 C 74.793 140.158, 74.778 142, 78 142 C 79.035 142, 80.205 142.523, 80.600 143.162 C 81.490 144.601, 77.478 148, 74.889 148 C 73.247 148, 73 147.216, 73 142 C 73 137.333, 72.667 136, 71.500 136 C 70.303 136, 70.003 137.465, 70.015 143.250 C 70.034 151.914, 70.772 153.640, 73.559 151.532 C 74.627 150.724, 76.227 150.049, 77.115 150.032 C 78.003 150.014, 79.916 149.067, 81.365 147.927 C 84.236 145.669, 84.939 141.298, 82.577 140.391 C 81.424 139.949, 81.519 139.481, 83.077 137.923 C 85.628 135.372, 85.510 132.470, 82.777 130.557 C 80.085 128.671, 77.759 128.681, 72.500 130.602 M 121.459 133.067 C 121.096 133.653, 121.040 134.373, 121.333 134.667 C 122.050 135.383, 124 134.121, 124 132.941 C 124 131.663, 122.274 131.748, 121.459 133.067 M 89.667 139.667 C 88.620 140.714, 88.888 145, 90 145 C 90.550 145, 91 143.650, 91 142 C 91 138.893, 90.796 138.537, 89.667 139.667" stroke="none" fill="#fbf9f9" fill-rule="evenodd"/></svg>
